<svg id="图层_1" data-name="图层 1" xmlns="http://www.w3.org/2000/svg" viewBox="0 0 180 20"><defs><style>.cls-1{fill:#1a1a1a;}</style></defs><title>audio</title><path class="cls-1" d="M0,0V20H180V0ZM2.66,18H1.33V11H2.66Zm4.19,0H5.52V9.09H6.85ZM11,18H9.71V12H11Zm4.19,0H13.9V7.2h1.33Zm4.19,0H18.09V2h1.33Zm4.19,0H22.28V9.09h1.33Zm4.19,0H26.47V11.51h1.33ZM32,18H30.67V9.09H32Zm4.19,0H34.86v-4.1h1.33Zm4.19,0H39V9.09h1.33Zm4.19,0H43.24V10.9h1.33Zm4.19,0H47.43V9.09h1.33Zm4.19,0H51.62V2.12h1.33Zm4.19,0H55.81V6.15h1.33Zm4.19,0H60V8h1.33Zm4.19,0H64.19V4h1.33Zm4.19,0H68.38V9.06h1.33Zm4.19,0H72.57V14.13H73.9Zm4.19,0H76.76V9.06h1.33Zm4.19,0H81V12h1.33Zm4.19,0H85.14V9.06h1.33Zm4.19,0H89.33V12h1.33Zm4.19,0H93.53V7.1h1.33ZM99,18H97.72V9.06H99Zm4.19,0h-1.33V12h1.33Zm4.19,0H106.1V7.31h1.33Zm4.19,0h-1.33V6.15h1.33Zm4.19,0h-1.33V8h1.33ZM120,18h-1.33V2.12H120Zm4.19,0h-1.33V9.59h1.33Zm4.19,0h-1.33V8h1.33Zm4.19,0h-1.33V4h1.33Zm4.19,0h-1.33V9.06h1.33ZM141,18h-1.33V14.13H141Zm4.19,0h-1.33V9.06h1.33Zm4.19,0H148V12h1.33Zm4.19,0h-1.33V9.06h1.33Zm4.19,0h-1.33V12h1.33Zm4.19,0h-1.33V7.1h1.33Zm4.19,0h-1.33V9.06h1.33Zm4.19,0H169V12h1.33Zm4.19,0h-1.33V11h1.33Zm4.19,0h-1.33V8h1.33Z"/></svg>