<svg width="22" height="21" viewBox="0 0 22 21" fill="none" xmlns="http://www.w3.org/2000/svg">
<path d="M21.5424 6.07399C21.0543 5.51445 18.0188 1.93311 16.8612 0.683425C16.5038 0.297108 16.2398 0.0303982 15.6913 0.00977631C15.1455 -0.0122204 6.3303 0.00977631 6.3303 0.00977631C6.02784 0.00977631 5.64153 0.0785159 5.14248 0.662803C3.98078 2.02385 1.36179 5.02365 0.477802 6.07537C-0.121608 6.76826 -0.195847 7.75399 0.477802 8.76996C1.91446 10.4417 5.86837 14.9785 9.84152 19.5497C10.4038 20.2014 10.7599 20.2247 11.0115 20.2247C11.2576 20.2247 11.6068 20.2124 12.1828 19.5497C16.1161 15.0211 19.8913 10.6933 21.5424 8.76996C22.0992 8.09494 22.2037 6.87275 21.5424 6.07399ZM20.3711 8.09494C19.0526 9.63196 15.0891 14.0368 11.9505 17.6649C11.4913 18.1955 11.2136 18.2024 11.017 18.2024C10.8176 18.2024 10.5344 18.1832 10.0835 17.6649C6.91321 14.0038 2.79433 9.43398 1.64913 8.09494C1.33017 7.76774 1.33705 7.21782 1.64913 6.74764C2.35302 5.90627 4.8139 3.11543 5.74326 2.0321C6.43341 1.22647 7.03832 1.35707 7.28028 1.35707H14.7509C15.6473 1.35707 15.8604 1.55504 16.2742 2.0321C17.1705 3.06182 19.982 6.29946 20.3697 6.74764C20.7175 7.23981 20.613 7.70587 20.3711 8.09494ZM11.0128 15.5353C9.98862 14.1605 6.35779 9.75019 5.43118 8.4895L5.35969 8.40014C5.20022 8.18705 5.05724 8.08669 4.66817 8.08669H4.61868V7.1367H6.67537C6.73586 7.1367 6.74961 7.13671 6.79085 7.20407L11.0018 12.6194L15.2197 7.21782C15.2733 7.13533 15.2926 7.13533 15.3489 7.13533H17.396V8.08669H17.3493C16.9643 8.08669 16.8186 8.18705 16.6591 8.40152C16.6426 8.42214 16.6261 8.44688 16.6014 8.47438C15.6651 9.74606 12.0357 14.1605 11.0128 15.5353Z" fill="white"/>
</svg>
